<svg id="Layer_1" data-name="Layer 1" xmlns="http://www.w3.org/2000/svg" viewBox="0 0 514.77 419.73"><defs><style>.cls-1,.cls-2{stroke:#000;stroke-miterlimit:10;}.cls-1{stroke-width:4px;}.cls-2{fill:none;stroke-width:10px;}</style></defs><path class="cls-1" d="M233.2,231.6h.2c9,0,16,2.5,20.9,7.5a28,28,0,0,1,0,39.6c-4.9,5-11.9,7.5-20.9,7.5h-.2v.1h-3.1V231.6Zm0,3.1V283h.2c8.1,0,14.3-2.2,18.7-6.6a24.87,24.87,0,0,0,0-35.2c-4.4-4.4-10.6-6.5-18.7-6.5Z" transform="translate(-46.83 -86.63)"/><path class="cls-1" d="M281.5,279.9a15,15,0,0,0,10.3,4,15.18,15.18,0,0,0,11-4.5,12,12,0,0,0,1.1-1.2l3.2,1.2c-.6.8-1.3,1.6-2,2.4a18.81,18.81,0,1,1-13.3-32.1,18.25,18.25,0,0,1,11.7,4c.5.5,1.1,1,1.6,1.5l.6.6-2.3,2.3ZM301.1,256a15.47,15.47,0,0,0-20.2,1.4,15,15,0,0,0-4.5,11,14.69,14.69,0,0,0,3.1,9.3Z" transform="translate(-46.83 -86.63)"/><path class="cls-1" d="M345.8,265.3H326.9l-7.6,21H316l20.4-56,20.3,56h-3.2Zm-1.2-3.1-8.3-22.9L328,262.2Z" transform="translate(-46.83 -86.63)"/><path class="cls-1" d="M373.6,260.1v26.1h-3.1V252.6h3.1v2.2a13.49,13.49,0,0,1,9.8-4.2,13,13,0,0,1,9.7,3.7,12.74,12.74,0,0,1,3.8,9.4v22.5h-3.1V264a9.76,9.76,0,0,0-3.1-7.3,10.21,10.21,0,0,0-7.3-3,10,10,0,0,0-7.3,3A10.58,10.58,0,0,0,373.6,260.1Z" transform="translate(-46.83 -86.63)"/><path class="cls-1" d="M444.1,279.6l-1.8,2.1a18.8,18.8,0,1,1,0-26.6,13.65,13.65,0,0,1,1.9,2.3v-4.8h3.1v26.1a17.61,17.61,0,0,1-5.4,12.9,18.83,18.83,0,0,1-26.6,0,15,15,0,0,1-2-2.4l3.2-1.2a12,12,0,0,0,1.1,1.2,15,15,0,0,0,11,4.5,14.79,14.79,0,0,0,10.9-4.5A13.52,13.52,0,0,0,444.1,279.6Zm.1-14.4a15.76,15.76,0,0,0-4.2-7.8,15,15,0,0,0-11-4.5,15.18,15.18,0,0,0-11,4.5,15,15,0,0,0-4.5,11,15.18,15.18,0,0,0,4.5,11,15,15,0,0,0,11,4.5,15.44,15.44,0,0,0,15.2-12.2Z" transform="translate(-46.83 -86.63)"/><path class="cls-1" d="M468.1,279.9a15,15,0,0,0,10.3,4,15.18,15.18,0,0,0,11-4.5,12,12,0,0,0,1.1-1.2l3.2,1.2c-.6.8-1.3,1.6-2,2.4a18.81,18.81,0,1,1-13.3-32.1,18.25,18.25,0,0,1,11.7,4c.5.5,1.1,1,1.6,1.5l.6.6-2.3,2.3ZM487.7,256a15.47,15.47,0,0,0-20.2,1.4,15,15,0,0,0-4.5,11,14.69,14.69,0,0,0,3.1,9.3Z" transform="translate(-46.83 -86.63)"/><path class="cls-1" d="M509,231.5v54.7h-3.1V231.5Z" transform="translate(-46.83 -86.63)"/><path class="cls-1" d="M527.7,241.6a3.11,3.11,0,1,1-5.3,2.2,3.1,3.1,0,0,1,.9-2.2,2.94,2.94,0,0,1,2.2-.9A3.37,3.37,0,0,1,527.7,241.6Zm-.7,11.1v33.6h-3.1V252.7Z" transform="translate(-46.83 -86.63)"/><path class="cls-1" d="M550.2,269a24.61,24.61,0,0,1-5.4-3.6,8.1,8.1,0,0,1,5.7-13.8,7.24,7.24,0,0,1,5.5,2.2,6.83,6.83,0,0,1,2.1,4.9v.2l-2.7,1.1a7,7,0,0,0-1.6-3.9,4.52,4.52,0,0,0-3.4-1.3,5,5,0,0,0-3.5,8.5,28.93,28.93,0,0,0,3.6,2.6,29.36,29.36,0,0,1,6.2,4.2,10,10,0,0,1,0,14.1,9.29,9.29,0,0,1-7,2.9,9.67,9.67,0,0,1-7-2.9,9,9,0,0,1-2.9-6.4l3-.8a6.86,6.86,0,0,0,2,5,7,7,0,0,0,9.8,0,6.42,6.42,0,0,0,2-4.9,7,7,0,0,0-2-4.9A23.78,23.78,0,0,0,550.2,269Z" transform="translate(-46.83 -86.63)"/><path class="cls-1" d="M301.1,313.4l19.1,33,19-33h3.2v50.8h-2.9l-.18-45.28L320.2,352.1l-19.32-33.23-.08,45.26-2.9.07L297.8,314v-.55Z" transform="translate(-46.83 -86.63)"/><path class="cls-1" d="M381.1,344.8H363.5l-7.1,19.5h-3l18.9-52,18.9,52h-3Zm-1-2.9-7.7-21.3-7.7,21.3Z" transform="translate(-46.83 -86.63)"/><path class="cls-1" d="M405,313.5h.2c8.4,0,14.8,2.3,19.4,6.9a26.07,26.07,0,0,1,0,36.8c-4.6,4.6-11.1,6.9-19.4,6.9H405v.1h-2.9V313.4l2.9.1Zm0,2.9v44.8h.2c7.5,0,13.3-2,17.4-6.1a22.94,22.94,0,0,0,0-32.6c-4-4-9.8-6.1-17.4-6.1Z" transform="translate(-46.83 -86.63)"/><path class="cls-1" d="M470.3,311.51v4.79H447.8v21.1h22.5v2.9H447.8v21.1h22.5v2.9H444.9V313.5h25.4Z" transform="translate(-46.83 -86.63)"/><polyline class="cls-2" points="392.07 141.76 266.87 7.07 158.67 107.56"/><polyline class="cls-2" points="389.77 292.87 260.77 412.67 182.37 328.26"/><path class="cls-1" d="M143.3,359.3c-3.4,2.4-6.5,5.2-9.8,7.8-4.4,3.4-9.2,5.6-14.9,5.3-10.61-.49-24.72-12-28.14-23.36a.55.55,0,0,1,.68-.67,63,63,0,0,1,7.66,2.33c8.1,3.3,16.4,3.6,25,2.2,8-1.26,15.93-2.24,23.44-3.21a.55.55,0,0,0,.45-.72c-3.35-9.92-7.16-20.6-10.59-31.37-2.1-6.5-4.7-8.8-11.5-8.6-2.9.1-5.9.8-8.8,1.1-8,.9-16,2.3-24,2.3-20.7,0-37.1-11.3-43.2-29.1a38.55,38.55,0,0,1-.76-3.81.55.55,0,0,1,.81-.58c1.45.84,2.35,1.4,3.25,1.89,5.9,3.4,11.7,7.2,17.9,10.2,12.9,6.2,26.7,6.8,40.7,5.9,7.08-.47,14.25-.86,20.08,3.82a.54.54,0,0,0,.88-.48c-1.14-11.33-2.21-22.49-3.36-33.64a4.34,4.34,0,0,0-2.3-2.7c-6-2.8-11.9-5.7-18-8.2-14.1-5.7-23-16-27.1-30.5a20.08,20.08,0,0,1-.6-6,3.58,3.58,0,0,1,2-2.6c.7-.2,1.9.9,2.7,1.7,5.1,4.9,9.6,10.5,15.2,14.8,8.81,7,20.36,10.4,27,21.47a.54.54,0,0,0,1-.24c.66-7.43,1.38-13.83,1.75-20.23a26.09,26.09,0,0,0-.4-7.9c-5.1-22.8,6.5-46.9,27.6-56.9.9-.4,1.9-.5,2.8-.8.2.7.4,1.1.3,1.2-4.8,6.4-5.5,14.2-7.4,21.5-3.2,11.9-6.2,23.9-13.9,33.8a26.54,26.54,0,0,0-5.8,16.2c-.18,4.47-.5,8.93-.78,13.4a.54.54,0,0,0,1,.34c15.18-21,35-32.67,61-33.22a.55.55,0,0,1,.49.83,4.92,4.92,0,0,1-1.76,1.65,124.69,124.69,0,0,0-34.6,24.2c-7.39,7.1-15,14-26.31,16.4a.56.56,0,0,0-.43.6c1.78,13.83,3.46,27.36,5.14,41h1a.55.55,0,0,0,.43-.21,12.09,12.09,0,0,0,1.44-1.89c2-3.4,3.9-6.7,5.9-10.1,12.1-20.9,30.1-31.2,54.3-30.5a19.82,19.82,0,0,1,3.9.9c-.5.9-.6,1.2-.8,1.3-1.2.6-2.4,1.2-3.6,1.7-11.9,5.3-23.1,11.6-31.9,21.6-6.7,7.7-14.4,14.2-24,18a25.43,25.43,0,0,0-2.8,1.6c-1.9.9-2.3,2.2-1.7,4.3,1.5,4.7,2.7,9.6,4.3,14.3,2.49,7.07,5.15,14.15,8.18,22a.55.55,0,0,0,1,.07c1.6-2.85,2.76-4.92,3.93-7,5.2-8.9,10.8-17.6,20.8-21.8,7.1-3,14.3-5.6,21.6-8a25.28,25.28,0,0,1,8.7-.8c1.12.09,2.24,1.06,3.36,1.78a.54.54,0,0,1,.13.8c-.84,1-1.66,2.29-2.69,2.72A66.69,66.69,0,0,0,183.4,337c-7.14,9-15,16.56-28.11,17.17a.55.55,0,0,0-.46.81c8,14.32,15.6,28,23.49,42.16a.55.55,0,0,0,1,0c4-7.17,7.47-13.8,11.32-20.24,4.2-7.1,10.9-11.4,18.3-14.6,8.43-3.53,17.26-4.77,21.38-2.81a.55.55,0,0,1-.09,1c-1,.28-1.91.53-2.79.68a20.31,20.31,0,0,0-16.3,12.3c-1.1,2.5-2.4,4.8-3.4,7.3-3.8,9.3-9.9,15.9-20,18.4a51.61,51.61,0,0,0-6,2,.56.56,0,0,0-.3.79c5.82,10.17,11.44,20.16,17.16,30.06a.53.53,0,0,1-.09.67c-.21.19-.44.38-.65.58a.56.56,0,0,1-.71,0c-1.14-.87-2.5-1.64-3.13-2.81q-7.2-12.15-14.1-24.6a3.92,3.92,0,0,0-4.4-2.4,30.12,30.12,0,0,0-17,6.6,57,57,0,0,1-9.6,6.7,21.44,21.44,0,0,1-28.9-8.9,27.9,27.9,0,0,1-1.42-3.84.55.55,0,0,1,.51-.73,3.57,3.57,0,0,1,1.41.07c6.6,3.9,13.5,3.5,20.3,1.4,5.6-1.7,11.1-4.3,16.5-6.6,4.76-2.05,9.43-4.37,15.15-3a.55.55,0,0,0,.6-.8c-7.38-13.13-14.4-25.83-21.7-38.89a.56.56,0,0,0-.72-.22A50.61,50.61,0,0,0,143.3,359.3Zm-76-56.4c11.3,7.6,23.9,8.3,36.8,6.8,5.1-.6,10.1-1.8,15.2-2.3,4.3-.37,8.61-.31,13.08-.38a.56.56,0,0,0,.45-.85,12.81,12.81,0,0,0-9.43-6.37,78.2,78.2,0,0,0-13.7-.3c-20.3,1.5-39-3-55.7-15a10.32,10.32,0,0,0-2.1-1A40.42,40.42,0,0,0,67.3,302.9Zm66.88-74.76c13.21-15.29,15.6-34.71,20.8-53.11a.55.55,0,0,0-.75-.65C137,182.64,126,210.77,133.25,228A.56.56,0,0,0,134.18,228.14ZM173,344.5a37.09,37.09,0,0,0,4.7-5c8-9.95,17.07-18.52,29-23.89a.54.54,0,0,0-.17-1c-6.62-.44-22.12,4.31-30.87,9.63-10.12,6.13-15.13,16.34-20.92,26.83a.55.55,0,0,0,.51.82A27.66,27.66,0,0,0,173,344.5ZM137.2,353a88.69,88.69,0,0,0-10.3,1.8c-10.32,2.1-20.46,1.92-30.41-2.37a.54.54,0,0,0-.7.75c7,13.39,22.66,22.86,35.81,12.42,4.91-3.89,10-7.7,15.42-11.82a.55.55,0,0,0-.32-1A80.46,80.46,0,0,0,137.2,353ZM102.3,250c7.67,4.41,16,7.63,24.6,11.59a.55.55,0,0,0,.76-.65A27.83,27.83,0,0,0,116.4,246c-4.8-3.2-9.9-5.9-14.8-9a66.73,66.73,0,0,1-17.06-14.93.55.55,0,0,0-1,.45C85.81,234.22,91.67,243.88,102.3,250Zm57,44.6c10.3-10.87,21-21,35.71-27.34a.55.55,0,0,0-.23-1.05c-24,.61-41.37,15.27-51.38,38a6.07,6.07,0,0,0,.7,1C149.2,301.7,155.1,299,159.3,294.6Zm-25.05-33.3a.55.55,0,0,0,.73.71c3.26-1.47,6.15-2.53,8.72-4.21a64.57,64.57,0,0,0,10.1-8c9.49-9,19.43-17.34,31.8-24.12a.55.55,0,0,0-.32-1C165,227.1,142.34,243,134.25,261.3ZM191,380.4c-2.94,5.59-6.14,11.08-9.44,17a.55.55,0,0,0,.57.81c11.19-2,18.91-7.46,23-17.91,2.24-5.82,4.8-11.57,9.34-16.15a.55.55,0,0,0-.55-.91C204.24,366.2,196,371,191,380.4ZM144.6,416a38.48,38.48,0,0,0,7.4-4.1c3.7-2.4,7-5.6,10.9-7.5,3.55-1.68,7.53-2.4,11.45-3.47a.54.54,0,0,0,.27-.89c-2.71-2.86-6.1-3.64-10-2.24s-7.8,3.1-11.5,4.8c-9.31,4.22-18.72,7.71-29.54,5.15a.55.55,0,0,0-.58.85C128.1,416,136.71,419,144.6,416Z" transform="translate(-46.83 -86.63)"/></svg>