<?xml version="1.0" encoding="utf-8"?>
<!-- Generator: Adobe Illustrator 21.1.0, SVG Export Plug-In . SVG Version: 6.00 Build 0)  -->
<svg version="1.1" id="Layer_1" xmlns="http://www.w3.org/2000/svg" xmlns:xlink="http://www.w3.org/1999/xlink" x="0px" y="0px"
	 viewBox="0 0 600 600" style="enable-background:new 0 0 600 600;" xml:space="preserve">
<style type="text/css">
	.st0{stroke:#000000;stroke-width:2;stroke-miterlimit:10;}
	.st1{fill:none;stroke:#000000;stroke-width:4;stroke-miterlimit:10;}
</style>
<g>
	<g>
		<path class="st0" d="M241.2,235.6h0.2c9,0,16,2.5,20.9,7.5c5.5,5.5,8.2,12.1,8.2,19.8c0,7.7-2.7,14.4-8.2,19.8
			c-4.9,5-11.9,7.5-20.9,7.5h-0.2v0.1h-3.1v-54.7L241.2,235.6L241.2,235.6z M241.2,238.7V287h0.2c8.1,0,14.3-2.2,18.7-6.6
			c4.9-4.9,7.3-10.7,7.3-17.6c0-6.9-2.4-12.7-7.3-17.6c-4.4-4.4-10.6-6.5-18.7-6.5H241.2z"/>
		<path class="st0" d="M285.5,283.9c2.9,2.6,6.3,4,10.3,4c4.3,0,7.9-1.5,11-4.5c0.4-0.4,0.8-0.8,1.1-1.2l3.2,1.2
			c-0.6,0.8-1.3,1.6-2,2.4c-3.7,3.7-8.1,5.5-13.3,5.5c-5.2,0-9.6-1.8-13.3-5.5c-3.7-3.7-5.5-8.1-5.5-13.3c0-5.2,1.8-9.6,5.5-13.3
			c3.7-3.7,8.1-5.5,13.3-5.5c4.4,0,8.3,1.3,11.7,4c0.5,0.5,1.1,1,1.6,1.5c0.2,0.2,0.4,0.4,0.6,0.6l-2.3,2.3L285.5,283.9z M305.1,260
			c-2.7-2.1-5.8-3.1-9.3-3.1c-4.3,0-7.9,1.5-10.9,4.5c-3,3-4.5,6.7-4.5,11c0,3.5,1,6.6,3.1,9.3L305.1,260z"/>
		<path class="st0" d="M345.8,269.3h-18.9l-7.6,21h-3.3l20.4-56l20.3,56h-3.2L345.8,269.3z M344.6,266.2l-8.3-22.9l-8.3,22.9H344.6z
			"/>
		<path class="st0" d="M366.6,264.1v26.1h-3.1v-33.6h3.1v2.2c2.8-2.8,6.1-4.2,9.8-4.2c4,0,7.2,1.2,9.7,3.7c2.5,2.5,3.8,5.6,3.8,9.4
			v22.5h-3.1V268c0-2.8-1-5.3-3.1-7.3c-2.1-2-4.5-3-7.3-3s-5.3,1-7.3,3C367.9,261.8,367.1,263,366.6,264.1z"/>
		<path class="st0" d="M433.1,283.6c-0.6,0.7-1.2,1.4-1.8,2.1c-3.7,3.7-8.1,5.5-13.3,5.5c-5.2,0-9.6-1.8-13.3-5.5
			c-3.7-3.7-5.5-8.1-5.5-13.3c0-5.2,1.8-9.6,5.5-13.3s8.1-5.5,13.3-5.5c5.2,0,9.6,1.8,13.3,5.5c0.7,0.7,1.4,1.5,1.9,2.3v-4.8h3.1
			v26.1c0,5-1.8,9.3-5.4,12.9c-3.7,3.7-8.1,5.5-13.3,5.5c-5.2,0-9.6-1.8-13.3-5.5c-0.8-0.8-1.4-1.5-2-2.4l3.2-1.2
			c0.3,0.4,0.7,0.8,1.1,1.2c3,3,6.7,4.5,11,4.5c4.3,0,7.9-1.5,10.9-4.5C431.4,290.6,432.9,287.3,433.1,283.6z M433.2,269.2
			c-0.6-2.9-2-5.5-4.2-7.8c-3-3-6.7-4.5-11-4.5s-7.9,1.5-11,4.5c-3,3-4.5,6.7-4.5,11c0,4.3,1.5,7.9,4.5,11c3,3,6.7,4.5,11,4.5
			s7.9-1.5,11-4.5c2.2-2.2,3.6-4.8,4.2-7.7V269.2z"/>
		<path class="st0" d="M453.1,283.9c2.9,2.6,6.3,4,10.3,4c4.3,0,7.9-1.5,11-4.5c0.4-0.4,0.8-0.8,1.1-1.2l3.2,1.2
			c-0.6,0.8-1.3,1.6-2,2.4c-3.7,3.7-8.1,5.5-13.3,5.5c-5.2,0-9.6-1.8-13.3-5.5c-3.7-3.7-5.5-8.1-5.5-13.3c0-5.2,1.8-9.6,5.5-13.3
			c3.7-3.7,8.1-5.5,13.3-5.5c4.4,0,8.3,1.3,11.7,4c0.5,0.5,1.1,1,1.6,1.5c0.2,0.2,0.4,0.4,0.6,0.6l-2.3,2.3L453.1,283.9z M472.7,260
			c-2.7-2.1-5.8-3.1-9.3-3.1c-4.3,0-7.9,1.5-10.9,4.5c-3,3-4.5,6.7-4.5,11c0,3.5,1,6.6,3.1,9.3L472.7,260z"/>
		<path class="st0" d="M490,235.5v54.7h-3.1v-54.7H490z"/>
		<path class="st0" d="M504.7,245.6c0.6,0.6,0.9,1.3,0.9,2.2c0,0.9-0.3,1.6-0.9,2.2c-0.6,0.6-1.3,0.9-2.2,0.9s-1.6-0.3-2.2-0.9
			c-0.6-0.6-0.9-1.3-0.9-2.2c0-0.8,0.3-1.6,0.9-2.2c0.6-0.6,1.3-0.9,2.2-0.9S504.1,245.1,504.7,245.6z M504,256.7v33.6h-3.1v-33.6
			H504z"/>
		<path class="st0" d="M524.2,273c-2.6-1.4-4.4-2.6-5.4-3.6c-1.6-1.6-2.4-3.5-2.4-5.7c0-2.2,0.8-4.1,2.4-5.7
			c1.6-1.6,3.5-2.4,5.7-2.4c2.2,0,4.1,0.7,5.5,2.2c1.4,1.4,2.1,3.1,2.1,4.9v0.2l-2.7,1.1c-0.2-1.7-0.8-3-1.6-3.9
			c-0.9-0.9-2-1.3-3.4-1.3c-1.4,0-2.5,0.5-3.5,1.5c-1,1-1.5,2.1-1.5,3.5c0,1.4,0.5,2.5,1.5,3.5c0.6,0.6,1.8,1.4,3.6,2.6
			c2.9,1.6,5,3,6.2,4.2c1.9,2,2.9,4.3,2.9,7c0,2.8-1,5.1-2.9,7.1s-4.3,2.9-7,2.9s-5.1-1-7-2.9s-2.9-4.1-2.9-6.4l3-0.8
			c0,2,0.7,3.7,2,5c1.4,1.3,3,2,4.9,2s3.5-0.7,4.9-2c1.4-1.3,2-3,2-4.9c0-1.9-0.7-3.5-2-4.9C527.9,275.4,526.4,274.4,524.2,273z"/>
		<path class="st0" d="M307.1,311.4l19.1,33l19-33h3.3l-0.1,0.2v50.6h-2.9v-45.6l-19.3,33.5l-19.4-33.5v45.6h-2.9v-50.6l-0.1-0.2
			H307.1z"/>
		<path class="st0" d="M384.1,342.8h-17.6l-7.1,19.5h-3l18.9-52l18.9,52h-3L384.1,342.8z M383.1,339.9l-7.7-21.3l-7.7,21.3H383.1z"
			/>
		<path class="st0" d="M405,311.5h0.2c8.4,0,14.8,2.3,19.4,6.9c5.1,5.1,7.6,11.2,7.6,18.4c0,7.2-2.5,13.3-7.6,18.4
			c-4.6,4.6-11.1,6.9-19.4,6.9H405v0.1h-2.9v-50.8L405,311.5L405,311.5z M405,314.4v44.8h0.2c7.5,0,13.3-2,17.4-6.1
			c4.5-4.5,6.8-10,6.8-16.3c0-6.4-2.3-11.8-6.8-16.3c-4-4-9.8-6.1-17.4-6.1H405z"/>
		<path class="st0" d="M467.3,311.4v2.9h-22.5v21.1h22.5v2.9h-22.5v21.1h22.5v2.9h-25.4v-50.8H467.3z"/>
	</g>
	<polyline class="st1" points="438.9,242.4 313.7,107.7 205.5,208.2 	"/>
	<polyline class="st1" points="428.6,372.5 299.6,492.3 221.2,407.9 	"/>
	<path class="st0" d="M161.3,359.3c-3.4,2.4-6.5,5.2-9.8,7.8c-4.4,3.4-9.2,5.6-14.9,5.3c-10.9-0.5-25.5-12.7-28.4-24.3
		c3.1,0.9,6,1.5,8.6,2.6c8.1,3.3,16.4,3.6,25,2.2c8.2-1.3,16.4-2.3,24.1-3.3c-3.4-10.1-7.3-21-10.8-32c-2.1-6.5-4.7-8.8-11.5-8.6
		c-2.9,0.1-5.9,0.8-8.8,1.1c-8,0.9-16,2.3-24,2.3c-20.7,0-37.1-11.3-43.2-29.1c-0.4-1.3-0.5-2.7-1-5c2.1,1.2,3.2,1.9,4.3,2.5
		c5.9,3.4,11.7,7.2,17.9,10.2c12.9,6.2,26.7,6.8,40.7,5.9c7.5-0.5,15.1-0.9,21.1,4.7c-1.2-11.8-2.3-23.4-3.5-35
		c-0.1-1-1.3-2.2-2.3-2.7c-6-2.8-11.9-5.7-18-8.2c-14.1-5.7-23-16-27.1-30.5c-0.5-1.9-0.7-4-0.6-6c0.1-1,1.1-2.3,2-2.6
		c0.7-0.2,1.9,0.9,2.7,1.7c5.1,4.9,9.6,10.5,15.2,14.8c9.2,7.3,21.4,10.7,27.8,23c0.7-8.2,1.5-15.1,1.9-22c0.2-2.6,0.2-5.4-0.4-7.9
		c-5.1-22.8,6.5-46.9,27.6-56.9c0.9-0.4,1.9-0.5,2.8-0.8c0.2,0.7,0.4,1.1,0.3,1.2c-4.8,6.4-5.5,14.2-7.4,21.5
		c-3.2,11.9-6.2,23.9-13.9,33.8c-3.9,5-5.6,10.2-5.8,16.2c-0.2,5.1-0.6,10.2-0.9,15.3c15.5-22.2,35.9-34.5,63-34.8
		c-0.5,1.2-1.3,2-2.2,2.5c-13,6-24.4,14.3-34.6,24.2c-7.5,7.2-15.2,14.2-26.8,16.5c1.8,14,3.5,27.7,5.2,41.5c0.4,0,0.9,0,1.3,0
		c0.5-0.7,1.2-1.3,1.6-2.1c2-3.4,3.9-6.7,5.9-10.1c12.1-20.9,30.1-31.2,54.3-30.5c1.3,0,2.5,0.6,3.9,0.9c-0.5,0.9-0.6,1.2-0.8,1.3
		c-1.2,0.6-2.4,1.2-3.6,1.7c-11.9,5.3-23.1,11.6-31.9,21.6c-6.7,7.7-14.4,14.2-24,18c-1,0.4-1.9,1.1-2.8,1.6
		c-1.9,0.9-2.3,2.2-1.7,4.3c1.5,4.7,2.7,9.6,4.3,14.3c2.6,7.4,5.4,14.8,8.6,23.1c1.9-3.4,3.2-5.7,4.5-8c5.2-8.9,10.8-17.6,20.8-21.8
		c7.1-3,14.3-5.6,21.6-8c2.7-0.9,5.8-0.9,8.7-0.8c1.3,0.1,2.6,1.4,3.9,2.1c-1,1.1-1.9,2.7-3.1,3.2c-10.2,4.5-18.8,11.1-25.7,19.8
		c-7.3,9.2-15.4,16.9-29,17.2c8.3,14.9,16.2,29.1,24.4,43.8c4.2-7.5,7.8-14.4,11.8-21.1c4.2-7.1,10.9-11.4,18.3-14.6
		c9.3-3.9,19.1-5,22.5-2.1c-1.6,0.4-2.8,0.8-4,1c-7.7,1.2-13.1,5.3-16.3,12.3c-1.1,2.5-2.4,4.8-3.4,7.3c-3.8,9.3-9.9,15.9-20,18.4
		c-2.2,0.5-4.3,1.4-6.6,2.2c6,10.5,11.8,20.8,17.7,31c-0.4,0.4-0.9,0.8-1.3,1.2c-1.2-1-2.8-1.8-3.5-3.1c-4.8-8.1-9.5-16.3-14.1-24.6
		c-1-1.9-2.2-2.6-4.4-2.4c-6.4,0.5-12,2.6-17,6.6c-3,2.5-6.2,4.9-9.6,6.7c-10.6,5.5-23.2,1.5-28.9-8.9c-0.7-1.3-1-2.8-1.7-4.6
		c1.2,0.1,1.8-0.1,2.2,0.1c6.6,3.9,13.5,3.5,20.3,1.4c5.6-1.7,11.1-4.3,16.5-6.6c5.1-2.2,10.1-4.7,16.4-2.6
		c-7.7-13.7-15-26.9-22.6-40.5C166.1,356.6,163.5,357.7,161.3,359.3z M85.3,302.9c11.3,7.6,23.9,8.3,36.8,6.8
		c5.1-0.6,10.1-1.8,15.2-2.3c4.6-0.4,9.2-0.3,14-0.4c-1.9-3.6-5.2-6.6-9.9-7.2c-4.5-0.5-9.1-0.6-13.7-0.3c-20.3,1.5-39-3-55.7-15
		c-0.4-0.3-0.9-0.5-2.1-1C73.2,292,78.4,298.2,85.3,302.9z M151.6,228.8c14-15.7,16.2-35.9,21.7-54.9
		C155.2,181.6,143.5,211.3,151.6,228.8z M191,344.5c1.7-1.5,3.3-3.2,4.7-5c8.4-10.4,17.9-19.3,30.7-24.6c-5-1.8-23,3.4-32.7,9.3
		c-10.4,6.3-15.4,16.9-21.4,27.7C180,351.6,186,349.1,191,344.5z M155.2,353c-3.5,0.3-6.9,1.1-10.3,1.8c-10.8,2.2-21.4,1.9-31.8-3
		c6.6,14.1,22.9,24.6,36.5,13.8c5.3-4.2,10.8-8.3,16.7-12.8C162.4,352.8,158.8,352.6,155.2,353z M120.3,250
		c8,4.6,16.7,7.9,25.7,12.1c-2-7.3-6.1-12.3-11.6-16.1c-4.8-3.2-9.9-5.9-14.8-9c-7.1-4.5-13.4-9.8-18.4-16.7
		C103.1,233,109,243.5,120.3,250z M177.3,294.6c10.9-11.5,22.3-22.2,38.3-28.4c-25.5-0.5-43.8,14.4-54.2,38c0.2,0.3,0.4,0.7,0.7,1
		C167.2,301.7,173.1,299,177.3,294.6z M151.7,262.6c3.8-1.8,7.1-2.9,10-4.8c3.6-2.3,7-5,10.1-8c10.1-9.6,20.7-18.4,34.2-25.4
		C184.6,225.7,159.6,242.9,151.7,262.6z M209,380.4c-3.1,5.9-6.5,11.7-10,18c11.8-1.8,19.9-7.3,24.1-18.1c2.5-6.5,5.4-12.9,11-17.7
		C223.5,365.5,214.4,370.3,209,380.4z M162.6,416c2.6-1,5-2.5,7.4-4.1c3.7-2.4,7-5.6,10.9-7.5c3.8-1.8,8.1-2.5,12.3-3.7
		c-2.8-3.4-6.4-4.4-10.6-2.9c-3.9,1.4-7.8,3.1-11.5,4.8c-9.7,4.4-19.5,8-30.9,4.8C145.2,415.7,154.3,419.1,162.6,416z"/>
</g>
</svg>
